<svg id="Layer_1" enable-background="new 0 0 511 511" height="512" viewBox="0 0 511 511" width="512" xmlns="http://www.w3.org/2000/svg"><g><g><path d="m255.5 6.418c-97.088 0-156.896 54.764-157.06 54.856 0 0-2.487 3.103-2.951 5.167-3.778 16.768-7.307 39.242-7.307 55.641 0 139.337 117.502 252.263 256.838 252.263 53.655 0 113.351-25.716 153.303-56.635.894-.692 3.729-5.339 3.729-5.339.176-1.075 5.739-23.227 5.739-53.662 0-139.337-112.954-252.291-252.291-252.291z" fill="#afe6ff"/><path d="m344.998 367.223c-139.337 0-252.291-112.955-252.291-252.291 0-18.417 1.986-36.362 5.733-53.658-58.022 46.224-95.231 117.485-95.231 197.435 0 60.696 21.434 116.386 57.145 159.915l390.292.004c24.806-30.223 42.77-66.395 51.406-106.257-43.096 34.327-97.675 54.852-157.054 54.852z" fill="#73c8f0"/></g><g><g><g><g><path d="m358.924 207.423h-1l-6.835-33.606 6.835-27.725h1c13.361 0 24.193 10.832 24.193 24.193v12.946c0 13.36-10.831 24.192-24.193 24.192z" fill="#ff965a"/></g></g></g><g><ellipse cx="257.647" cy="345.017" fill="#ff3c3c" rx="125.47" ry="101.485"/></g><path d="m392.47 335.457-2.341-.518-80.315-3.805c-77.167-3.656-141.731 57.922-141.731 135.176v29.109c27.239 10.063 56.681 15.581 87.417 15.581 78.166 0 148.666-35.744 195.146-92.373v-10.711c0-34.807-24.191-64.938-58.176-72.459z" fill="#ff3c3c"/><path d="m257.842 430.469c75.575 0 136.841-10.289 136.841-71.417 0-8.175-1.106-16.14-3.185-23.811l-136.292-30.159-136.719 30.345c-34.235 7.599-58.133 37.954-58.133 72.45v10.746c28.456 34.685 65.979 61.647 108.946 77.267 10.999-37.872 46.03-65.476 87.478-65.422.354.001.709.001 1.064.001z" fill="#dc1428"/><g><path d="m383.117 345.017c0 56.048-56.175 65.482-125.47 65.482s-125.47-9.434-125.47-65.482 56.175-101.485 125.47-101.485 125.47 45.436 125.47 101.485z" fill="#ff3c3c"/></g><g><path d="m343.908 331.29c0 38.533-38.62 69.771-86.261 69.771s-86.261-31.237-86.261-69.771 38.62-29.206 86.261-29.206 86.261-9.327 86.261 29.206z" fill="#dc1428"/></g><g><g><g><path d="m255.741 381.231c20.073 0 36.344-16.272 36.344-36.344v-81.407h-72.689v81.406c0 20.073 16.272 36.345 36.345 36.345z" fill="#ff965a"/></g></g></g><g><path d="m243.791 338.325c.002 0 .003-.001.005-.002-8.446-.451-16.614-1.934-24.399-4.297v-70.546h66.658l6.031 54.423c-8.951 14.408-33.969 21.189-48.295 20.422z" fill="#ef6a30"/></g><g><g><g><path d="m354.335 135.963c0-33.168-21.278-63.497-54.445-63.497h-88.298c-9.464 0-18.132 2.477-25.694 6.777v175.309c0 38.264 30.776 69.577 69.038 69.867.268.002.537.003.805.003 56.987 0 103.183-46.197 103.183-103.183v-32.575z" fill="#ffbe82"/></g></g></g><g><g><g><path d="m358.924 188.385v-23.256c5.066 0 9.174 4.107 9.174 9.174v4.909c0 5.066-4.107 9.173-9.174 9.173z" fill="#ef6a30"/></g></g></g><g><g><g><path d="m127.343 183.23c0 13.361 10.832 24.193 24.193 24.193h1.553l12.385-26.092-12.178-35.239h-1.761c-13.361 0-24.193 10.832-24.193 24.193v12.945z" fill="#ff965a"/></g></g></g><g><g><g><path d="m141.695 179.39c0 5.435 4.406 9.841 9.841 9.841v-24.949c-5.435 0-9.841 4.406-9.841 9.841z" fill="#ef6a30"/></g></g></g><g><g><g><path d="m135.089 190.49c0 9.083 7.364 16.447 16.447 16.447v-32.694c-9.083 0-16.447 7.364-16.447 16.447z" fill="#fff"/></g></g></g><g><g><g><path d="m211.159 182.68v7.276c0 4.746 3.848 8.594 8.594 8.594s8.594-3.848 8.594-8.594v-7.276z" fill="#ff965a"/></g></g></g><g><g><g><path d="m281.182 182.68v7.276c0 4.746 3.848 8.594 8.594 8.594s8.594-3.848 8.594-8.594v-7.276z" fill="#ff965a"/></g></g></g><g><g><g><path d="m219.753 191.667c-4.746 0-8.594-3.848-8.594-8.594v-11.055l3.168-4.797-3.168-4.797v-2.855c0-4.746 3.848-8.594 8.594-8.594s8.594 3.848 8.594 8.594v23.504c0 4.746-3.848 8.594-8.594 8.594z" fill="#373c41"/></g></g></g><g><g><g><path d="m289.776 191.667c-4.746 0-8.594-3.848-8.594-8.594v-11.055l3.168-4.797-3.168-4.797v-2.855c0-4.746 3.848-8.594 8.594-8.594s8.594 3.848 8.594 8.594v23.504c0 4.746-3.848 8.594-8.594 8.594z" fill="#373c41"/></g></g></g><g><g><g><g><path d="m231.075 146.678h-25.062c-4.746 0-8.594-3.848-8.594-8.594 0-4.746 3.848-8.594 8.594-8.594h25.062c4.746 0 8.594 3.848 8.594 8.594 0 4.746-3.848 8.594-8.594 8.594z" fill="#373c41"/></g></g></g></g><g><g><g><g><path d="m302.691 146.678h-25.062c-4.746 0-8.594-3.848-8.594-8.594 0-4.746 3.848-8.594 8.594-8.594h25.062c4.746 0 8.594 3.848 8.594 8.594 0 4.746-3.848 8.594-8.594 8.594z" fill="#373c41"/></g></g></g></g><g><path d="m287.385 239.211h-8.849l-23.305 4.838-23.305-4.838h-7.828c-2.626 0-4.724 2.292-4.374 4.895.67 4.979 2.349 9.638 4.823 13.766l47.189 13.984c10.657-5.231 18.378-15.528 20.023-27.75.35-2.603-1.748-4.895-4.374-4.895z" fill="#be1423"/></g><g><path d="m342.16 100.066c.986.001 1.96-.047 2.928-.119-9.264-16.253-25.026-27.482-45.198-27.482h-88.298c-9.464 0-18.132 2.477-25.694 6.777v2.196c-19.413 9.058-32.087 28.451-32.087 52.25l-2.274 54.974v31.554c0 59.556 49.9 107.227 109.797 104.054-43.381-12.598-75.091-52.632-75.091-100.077.258-5.863 0-62.674 0-84.254 0-.154.001-.307.002-.461.165-21.948 18.249-39.549 40.197-39.527z" fill="#ff965a"/></g><g><g><g><path d="m241.816 203.866c-2.136 8.531 1.746 17.824 9.171 20.625 1.494.564 3.092.869 4.754.869 1.661 0 3.26-.305 4.754-.869 7.425-2.801 11.308-12.094 9.171-20.625l-7.082-28.282c-1.783-7.12-11.902-7.12-13.685 0z" fill="#ff965a"/></g></g></g><g><g><path d="m358.924 78.715v57.792.003 52.153c-7.633 0-13.821-6.188-13.821-13.821v-61.026c0-13.479-7.586-25.903-19.707-31.799-.297-.145-.594-.286-.89-.423v-2.878h34.418z" fill="#262a2d"/></g></g><g><path d="m214.327 175.186c-1.75 0-3.168-1.418-3.168-3.168v-9.594c0-1.75 1.418-3.168 3.168-3.168 1.75 0 3.168 1.418 3.168 3.168v9.594c0 1.75-1.419 3.168-3.168 3.168z" fill="#fff"/></g><g><path d="m284.35 175.186c-1.75 0-3.168-1.418-3.168-3.168v-9.594c0-1.75 1.418-3.168 3.168-3.168 1.75 0 3.168 1.418 3.168 3.168v9.594c0 1.75-1.418 3.168-3.168 3.168z" fill="#fff"/></g><g><path d="m224.55 257.869c6.351 10.593 17.941 17.686 31.19 17.686 5.74 0 11.166-1.335 15.992-3.704-2.075-13.015-13.347-22.963-26.946-22.963-8.026-.001-15.242 3.465-20.236 8.981z" fill="#ff3c3c"/></g><g><path d="m273.409 248.887h-36.357c-2.831 0-5.127-2.295-5.127-5.127v-4.55h46.611v4.55c-.001 2.832-2.296 5.127-5.127 5.127z" fill="#fff"/></g><g><path d="m270.803.102c-29.531.027-53.271 24.27-52.746 53.797.224 12.581.564 25.16 1.082 37.734.004.104.009.208.013.312l123.008.121c21.404.021 38.766-17.324 38.766-38.728v-53.338z" fill="#373c41"/></g><g><g><path d="m219.54 59.015c0-32.485 26.318-58.827 58.803-58.857l102.582-.095v-.063l-170.586.158c-32.485.03-58.803 26.373-58.803 58.857v77.493.003 52.153c7.633 0 13.821-6.188 13.821-13.821v-61.026c0-.081 0-.162.001-.242.082-12.047 10.103-21.672 22.151-21.66l32.032.031v-32.931z" fill="#262a2d"/></g></g><g><path d="m208.149 491.404c-3.313 0-6-2.687-6-6v-69.342c0-3.313 2.687-6 6-6s6 2.687 6 6v69.342c0 3.313-2.686 6-6 6z" fill="#dc1428"/></g><g><path d="m208.149 476.403c-3.313 0-6-2.687-6-6v-69.342c0-3.313 2.687-6 6-6s6 2.687 6 6v69.342c0 3.314-2.686 6-6 6z" fill="#fff"/></g><g><path d="m306.155 491.404c-3.313 0-6-2.687-6-6v-69.342c0-3.313 2.687-6 6-6s6 2.687 6 6v69.342c0 3.313-2.686 6-6 6z" fill="#dc1428"/></g><g><path d="m306.155 476.403c-3.313 0-6-2.687-6-6v-69.342c0-3.313 2.687-6 6-6s6 2.687 6 6v69.342c0 3.314-2.686 6-6 6z" fill="#fff"/></g><g><path d="m146.979 229.86c-2.485 0-4.5-2.015-4.5-4.5v-33.694c0-2.485 2.015-4.5 4.5-4.5s4.5 2.015 4.5 4.5v33.694c0 2.486-2.015 4.5-4.5 4.5z" fill="#fff"/></g><g><g><g><path d="m375.371 192.991c0 9.083-7.364 16.447-16.447 16.447v-32.694c9.083 0 16.447 7.364 16.447 16.447z" fill="#fff"/></g></g></g><g><path d="m363.481 232.362c-2.485 0-4.5-2.015-4.5-4.5v-33.694c0-2.485 2.015-4.5 4.5-4.5s4.5 2.015 4.5 4.5v33.694c0 2.485-2.014 4.5-4.5 4.5z" fill="#fff"/></g></g></g></svg>